<svg xmlns="http://www.w3.org/2000/svg" xmlns:xlink="http://www.w3.org/1999/xlink" width="40" zoomAndPan="magnify" viewBox="0 0 30 30.000001" height="40" preserveAspectRatio="xMidYMid meet" version="1.0"><defs><clipPath id="ce25267baa"><path d="M 3.386719 2.902344 L 26.613281 2.902344 L 26.613281 26.128906 L 3.386719 26.128906 Z M 3.386719 2.902344 " clip-rule="nonzero"/></clipPath></defs><g clip-path="url(#ce25267baa)"><path stroke-linecap="butt" transform="matrix(0.0607369, 0, 0, 0.0607369, 3.387096, 2.903228)" fill-opacity="1" fill="#76b836" fill-rule="nonzero" stroke-linejoin="miter" d="M 191.2 381.947677 C 85.9176 381.947677 0.508298 296.538375 0.508298 191.191661 C 0.508298 85.909262 85.9176 0.49996 191.2 0.49996 C 296.546714 0.49996 381.956016 85.909262 381.956016 191.191661 C 381.956016 296.538375 296.546714 381.947677 191.2 381.947677 Z M 191.2 381.947677 " stroke="#3fb24f" stroke-width="1" stroke-opacity="1" stroke-miterlimit="10"/></g><path fill="#ffffff" d="M 11.910156 20.292969 L 8.242188 15.53125 C 7.917969 15.109375 7.996094 14.503906 8.417969 14.179688 L 8.816406 13.871094 C 9.238281 13.546875 9.84375 13.625 10.167969 14.046875 L 11.980469 16.402344 C 12.355469 16.890625 13.089844 16.90625 13.484375 16.425781 L 19.867188 8.714844 C 20.207031 8.304688 20.816406 8.246094 21.226562 8.585938 L 21.613281 8.90625 C 22.023438 9.246094 22.078125 9.851562 21.738281 10.261719 L 13.417969 20.320312 C 13.023438 20.796875 12.289062 20.785156 11.910156 20.292969 Z M 11.910156 20.292969 " fill-opacity="1" fill-rule="nonzero"/></svg>