<svg xmlns="http://www.w3.org/2000/svg" xmlns:xlink="http://www.w3.org/1999/xlink" width="190" zoomAndPan="magnify" viewBox="0 0 142.5 142.499995" height="190" preserveAspectRatio="xMidYMid meet" version="1.0"><defs><clipPath id="1c7aeb0d2f"><path d="M 79 22.222656 L 140 22.222656 L 140 120 L 79 120 Z M 79 22.222656 " clip-rule="nonzero"/></clipPath><clipPath id="071d491081"><path d="M 0 22.222656 L 62 22.222656 L 62 120 L 0 120 Z M 0 22.222656 " clip-rule="nonzero"/></clipPath></defs><g clip-path="url(#1c7aeb0d2f)"><path fill="#fca61f" d="M 93.332031 114.605469 C 84.570312 108.179688 80.515625 99.5625 80.398438 88.957031 C 80.375 86.980469 80.140625 85.007812 79.96875 83.035156 C 79.0625 72.582031 81.457031 62.664062 84.894531 52.929688 C 89.351562 40.296875 97.703125 30.613281 108.316406 22.738281 C 109.050781 22.195312 110.417969 22.460938 111.488281 22.441406 C 111.777344 22.433594 112.089844 22.742188 112.367188 22.941406 C 116.582031 25.910156 116.5625 25.96875 112.558594 29.171875 C 101.25 38.21875 93.554688 49.675781 89.675781 63.640625 C 89.558594 64.074219 89.597656 64.554688 89.5625 65.011719 C 90.003906 64.761719 90.527344 64.589844 90.878906 64.246094 C 96.347656 58.9375 102.777344 55.722656 110.496094 55.695312 C 121.132812 55.652344 129.199219 60.738281 134.84375 69.324219 C 142.40625 80.824219 141.050781 97.058594 132.289062 107.902344 C 127.703125 113.578125 122.070312 117.574219 114.851562 119.046875 C 112.660156 119.496094 110.367188 119.425781 108.140625 119.714844 C 102.398438 120.460938 97.921875 117.601562 93.332031 114.605469 Z M 134.316406 80.761719 C 133.875 78.351562 133.707031 75.847656 132.9375 73.546875 C 130.808594 67.175781 127.285156 62.015625 120.183594 60.339844 C 116.78125 59.539062 113.414062 59.589844 110.058594 60.515625 C 108.949219 60.820312 107.871094 61.222656 106.777344 61.578125 C 107.851562 61.800781 108.921875 62.019531 109.996094 62.238281 C 110.332031 62.304688 110.667969 62.355469 111 62.441406 C 121.527344 65.210938 128.988281 71.617188 133.59375 81.414062 C 133.75 81.746094 134.03125 82.019531 134.246094 82.316406 C 134.273438 81.914062 134.300781 81.507812 134.316406 80.761719 Z M 95.195312 106.390625 C 93.269531 104.359375 91.316406 102.359375 89.4375 100.289062 C 88.425781 99.179688 87.550781 97.953125 86.613281 96.773438 C 86.898438 98.375 86.996094 100.039062 87.507812 101.566406 C 89.429688 107.265625 92.078125 112.414062 98.339844 114.546875 C 99.878906 115.070312 101.339844 115.921875 102.914062 116.210938 C 104.195312 116.445312 105.585938 116.058594 106.929688 115.953125 C 106.421875 114.453125 107.5625 114.898438 108.273438 114.800781 C 109.25 114.667969 110.222656 114.5 111.195312 114.34375 C 110.335938 114.144531 109.476562 113.9375 108.613281 113.742188 C 103.535156 112.601562 99.382812 109.757812 95.195312 106.390625 Z M 92.398438 88.214844 C 93.164062 90.234375 93.835938 92.292969 94.734375 94.253906 C 95.15625 95.167969 96.023438 95.882812 96.6875 96.6875 C 96.453125 95.519531 96.402344 94.273438 95.945312 93.195312 C 95.105469 91.203125 94.027344 89.308594 93.054688 87.375 C 92.847656 86.972656 92.65625 86.558594 92.457031 86.148438 C 92.414062 86.59375 92.371094 87.035156 92.335938 87.480469 C 92.328125 87.613281 92.351562 87.75 92.398438 88.214844 Z M 112.378906 69.160156 C 114.390625 70.40625 116.398438 71.667969 118.425781 72.894531 C 118.664062 73.039062 119 73.023438 119.292969 73.078125 C 119.246094 72.898438 119.230469 72.703125 119.152344 72.535156 C 118.132812 70.335938 114.335938 68.179688 111.886719 68.417969 C 111.714844 68.433594 111.554688 68.609375 111.390625 68.710938 C 111.636719 68.816406 111.882812 68.925781 112.378906 69.160156 Z M 99.898438 107.03125 C 101.667969 107.699219 103.441406 108.375 105.21875 109.023438 C 105.386719 109.085938 105.617188 108.988281 105.820312 108.960938 C 105.707031 108.851562 105.609375 108.707031 105.476562 108.632812 C 102.746094 107.089844 100.019531 105.550781 97.277344 104.03125 C 97.09375 103.929688 96.8125 103.996094 96.578125 103.980469 C 96.65625 104.160156 96.679688 104.402344 96.8125 104.519531 C 97.746094 105.320312 98.695312 106.101562 99.898438 107.03125 Z M 89.164062 65.691406 L 89.257812 65.746094 C 89.257812 65.746094 89.242188 65.617188 89.164062 65.691406 Z M 89.164062 65.691406 " fill-opacity="1" fill-rule="nonzero"/></g><g clip-path="url(#071d491081)"><path fill="#fca61f" d="M 14.804688 47.289062 C 21.550781 37.617188 29.667969 29.613281 39.765625 23.675781 C 41.195312 22.832031 42.375 22.628906 43.6875 23.695312 C 44 23.949219 44.394531 24.105469 44.734375 24.332031 C 48.417969 26.742188 48.398438 27.273438 44.808594 29.503906 C 32.226562 37.316406 22.90625 48.160156 15.628906 60.886719 C 15.421875 61.25 15.410156 61.722656 15.304688 62.140625 C 15.675781 62.007812 16.078125 61.921875 16.417969 61.730469 C 33.128906 52.453125 50.859375 62.105469 58.015625 74.84375 C 63.582031 84.757812 61.757812 98.539062 53.875 107.359375 C 49.683594 112.054688 44.546875 115.101562 38.503906 116.714844 C 37.671875 116.933594 36.65625 116.835938 36.75 118.207031 C 36.761719 118.410156 36.085938 118.816406 35.695312 118.855469 C 28.40625 119.609375 21.570312 118.347656 15.300781 114.355469 C 7.070312 109.113281 1.554688 102.0625 0.445312 92.160156 C 0.144531 89.484375 0.0703125 86.609375 0.710938 84.023438 C 2.636719 76.222656 3.605469 68.113281 7.21875 60.8125 C 9.492188 56.238281 12.207031 51.875 14.804688 47.289062 Z M 36.101562 63.058594 C 33.667969 63.351562 31.230469 63.621094 28.800781 63.953125 C 28.351562 64.015625 27.9375 64.324219 27.507812 64.515625 C 27.980469 64.707031 28.433594 64.996094 28.921875 65.070312 C 39.460938 66.664062 47.726562 71.761719 53.457031 80.8125 C 53.722656 81.234375 54.085938 81.597656 54.402344 81.988281 C 54.402344 81.515625 54.476562 81.023438 54.394531 80.566406 C 52.503906 70.207031 47.417969 63.710938 36.101562 63.058594 Z M 15.71875 105.609375 C 12.242188 101.5625 9.777344 96.933594 7.835938 92 C 7.660156 91.554688 7.304688 91.179688 7.03125 90.769531 C 6.917969 91.273438 6.734375 91.769531 6.707031 92.273438 C 6.507812 95.957031 7.167969 99.507812 8.636719 102.875 C 11.96875 110.492188 16.898438 113.488281 24.195312 113.964844 C 24.65625 113.996094 25.121094 113.894531 25.582031 113.855469 C 25.242188 113.574219 24.898438 113.292969 24.558594 113.011719 C 21.683594 110.613281 18.800781 108.21875 15.71875 105.609375 Z M 32.140625 76.714844 C 35.460938 78.476562 39.597656 78.601562 42.25 81.714844 C 42.328125 81.808594 42.558594 81.917969 42.597656 81.882812 C 42.753906 81.730469 43.003906 81.507812 42.972656 81.363281 C 42.09375 77.4375 35.769531 74.710938 32.140625 76.714844 Z M 28.164062 109.867188 C 28.550781 109.820312 28.9375 109.777344 29.324219 109.734375 C 29.15625 109.554688 29.011719 109.34375 28.8125 109.203125 C 26.339844 107.441406 23.859375 105.691406 21.378906 103.941406 C 21.207031 103.820312 21.003906 103.746094 20.816406 103.648438 C 20.8125 103.847656 20.714844 104.128906 20.8125 104.234375 C 22.863281 106.472656 24.179688 109.632812 28.164062 109.867188 Z M 41.753906 73.878906 C 43.097656 75.222656 44.429688 76.574219 45.792969 77.894531 C 46.195312 78.277344 46.691406 78.566406 47.144531 78.898438 C 46.921875 78.363281 46.824219 77.71875 46.460938 77.3125 C 45.109375 75.8125 43.75 74.292969 42.230469 72.980469 C 41.519531 72.367188 40.421875 72.210938 39.5 71.84375 C 40.175781 72.460938 40.851562 73.078125 41.753906 73.878906 Z M 41.753906 73.878906 " fill-opacity="1" fill-rule="nonzero"/></g></svg>